<svg xmlns="http://www.w3.org/2000/svg" width="640" height="400" viewBox="0 0 320 200" role="img" aria-label="sample">
<defs>
  <linearGradient id="sky" x1="0" y1="0" x2="0" y2="1"><stop offset="0" stop-color="#1b1f3b"/><stop offset="1" stop-color="#3a3f7a"/></linearGradient>
  <linearGradient id="hill" x1="0" y1="0" x2="0" y2="1"><stop offset="0" stop-color="#6fb35b"/><stop offset="1" stop-color="#3f7a35"/></linearGradient>
  <radialGradient id="glow" cx="0.5" cy="0.5" r="0.5"><stop offset="0" stop-color="#ffd166" stop-opacity="0.9"/><stop offset="1" stop-color="#ffd166" stop-opacity="0"/></radialGradient>
</defs>
<rect width="320" height="200" fill="url(#sky)"/>
<g fill="#f4ecd8" opacity="0.9"><circle cx="40" cy="30" r="1.6"/><circle cx="90" cy="18" r="1.2"/><circle cx="140" cy="42" r="1.8"/><circle cx="210" cy="24" r="1.3"/><circle cx="270" cy="50" r="1.6"/><circle cx="300" cy="20" r="1.1"/><circle cx="180" cy="70" r="1"/><circle cx="60" cy="80" r="1.2"/></g>
<circle cx="250" cy="52" r="34" fill="url(#glow)"/>
<circle cx="250" cy="52" r="18" fill="#ffd166"/><circle cx="258" cy="46" r="15" fill="#1b1f3b" opacity="0.92"/>
<ellipse cx="90" cy="215" rx="190" ry="60" fill="url(#hill)"/>
<ellipse cx="270" cy="225" rx="170" ry="60" fill="#3f7a35"/>
<g transform="translate(110 92)">
  <path d="M6 44 Q6 40 10 40 H104 Q108 40 108 44 V96 H6 Z" fill="#f4ecd8"/>
  <path d="M0 44 Q57 -22 114 44 Z" fill="#c05b76"/>
  <path d="M0 44 Q57 -10 114 44 Z" fill="#d97590" opacity="0.6"/>
  <rect x="48" y="62" width="20" height="34" rx="3" fill="#5b4636"/>
  <rect x="18" y="56" width="20" height="18" rx="3" fill="#8fb8de"/><rect x="76" y="56" width="20" height="18" rx="3" fill="#8fb8de"/>
  <rect x="26" y="59" width="4" height="12" fill="#ffd166" opacity="0.8"/><rect x="84" y="59" width="4" height="12" fill="#ffd166" opacity="0.8"/>
  <rect x="84" y="10" width="10" height="18" fill="#5b4636"/>
</g>
<g transform="translate(40 110)"><rect x="12" y="40" width="8" height="30" rx="2" fill="#5b4636"/><circle cx="16" cy="30" r="22" fill="#5fa04e"/><circle cx="6" cy="38" r="14" fill="#6fb35b"/><circle cx="28" cy="40" r="13" fill="#4d8f40"/></g>
<g transform="translate(240 120)"><rect x="8" y="34" width="6" height="26" rx="2" fill="#5b4636"/><circle cx="11" cy="26" r="17" fill="#5fa04e"/><circle cx="2" cy="34" r="11" fill="#6fb35b"/></g>
</svg>
